<svg width="624" height="515" viewBox="0 0 624 515" fill="none" xmlns="http://www.w3.org/2000/svg">
<circle cx="313" cy="264" r="250" stroke="url(#paint0_linear_2_94)" stroke-opacity="0.7" stroke-width="2" stroke-dasharray="19 20"/>
<g filter="url(#filter0_d_2_94)">
<circle cx="70" cy="239" r="50" fill="white" fill-opacity="0.91" shape-rendering="crispEdges"/>
<circle cx="70" cy="239" r="51.5" stroke="white" stroke-opacity="0.91" stroke-width="3" shape-rendering="crispEdges"/>
</g>
<g clip-path="url(#clip0_2_94)">
<path d="M70.5 197C47.0294 197 28 216.029 28 239.5C28 262.971 47.0294 282 70.5 282C93.9706 282 113 262.971 113 239.5C113 216.029 93.9706 197 70.5 197ZM71.4067 205.192C80.1546 205.21 89.5258 212.304 92.2954 215.682L93.1596 216.745C98.9679 223.807 105.8 232.116 105.8 241.416C105.8 254.588 95.2456 261.986 83.9902 268.007C78.915 270.72 73.436 273.348 67.1744 273.348C51.0846 273.348 37.5448 260.708 37.5448 244.618C37.5448 242.117 38.1469 239.571 38.756 237.003C39.1881 235.179 39.6202 233.345 39.8433 231.517C41.7842 215.441 50.3515 207.451 69.6713 205.28C70.2475 205.217 70.8269 205.189 71.4067 205.192Z" fill="url(#paint1_linear_2_94)"/>
<path d="M52.2175 245.335C52.5775 245.588 52.8175 245.868 52.9375 246.175C53.0708 246.482 53.1375 246.908 53.1375 247.455C53.1375 247.722 53.0575 247.988 52.8975 248.255C52.7508 248.522 52.5975 248.715 52.4375 248.835C51.1708 249.528 49.9042 249.875 48.6375 249.875C48.0108 249.875 47.4708 249.795 47.0175 249.635C46.5642 249.475 46.1375 249.262 45.7375 248.995C45.4708 248.795 45.2508 248.515 45.0775 248.155C44.9175 247.808 44.8375 247.462 44.8375 247.115C44.8375 246.635 44.9842 246.215 45.2775 245.855C45.5842 245.495 45.9908 245.235 46.4975 245.075C46.4042 244.875 46.3575 244.642 46.3575 244.375C46.3575 244.122 46.5442 243.742 46.9175 243.235C46.2775 243.022 45.7708 242.642 45.3975 242.095C45.0375 241.548 44.8575 240.908 44.8575 240.175C44.8575 239.722 44.9642 239.322 45.1775 238.975C45.3908 238.615 45.7108 238.202 46.1375 237.735C46.4308 237.415 46.8042 237.182 47.2575 237.035C47.7108 236.888 48.2775 236.815 48.9575 236.815C49.4375 236.815 50.0308 236.922 50.7375 237.135C51.5775 236.548 52.3175 236.255 52.9575 236.255C53.1175 236.255 53.2975 236.295 53.4975 236.375C53.7108 236.455 53.8708 236.535 53.9775 236.615C54.0575 236.762 54.0975 237.008 54.0975 237.355C54.0975 237.488 54.0375 237.622 53.9175 237.755C53.8108 237.875 53.6708 237.935 53.4975 237.935L53.0175 237.915C52.7775 237.888 52.5908 237.875 52.4575 237.875C52.3108 237.875 52.0908 237.888 51.7975 237.915C52.0775 238.248 52.2908 238.602 52.4375 238.975C52.5975 239.348 52.6775 239.835 52.6775 240.435C52.6775 240.888 52.5108 241.362 52.1775 241.855C51.8442 242.348 51.4508 242.735 50.9975 243.015C50.3042 243.388 49.4975 243.582 48.5775 243.595C48.4708 243.702 48.3775 243.802 48.2975 243.895C48.2308 243.975 48.1975 244.042 48.1975 244.095C48.1975 244.242 48.3242 244.355 48.5775 244.435C48.8308 244.515 49.2175 244.575 49.7375 244.615C50.1375 244.642 50.5775 244.728 51.0575 244.875C51.5508 245.008 51.9375 245.162 52.2175 245.335ZM48.6975 241.955C49.3108 241.955 49.8042 241.788 50.1775 241.455C50.5508 241.122 50.7375 240.648 50.7375 240.035C50.7375 239.568 50.5708 239.188 50.2375 238.895C49.9042 238.602 49.4775 238.455 48.9575 238.455C48.6242 238.455 48.2642 238.515 47.8775 238.635C47.5042 238.742 47.2375 238.915 47.0775 239.155C46.9975 239.262 46.9175 239.468 46.8375 239.775C46.7575 240.068 46.7175 240.295 46.7175 240.455C46.7175 240.682 46.8108 240.915 46.9975 241.155C47.1975 241.382 47.4508 241.575 47.7575 241.735C48.0775 241.882 48.3908 241.955 48.6975 241.955ZM49.9575 246.295C49.2242 246.228 48.7042 246.162 48.3975 246.095C48.1042 246.042 47.8642 245.975 47.6775 245.895C46.9975 246.255 46.6575 246.648 46.6575 247.075C46.6575 247.475 46.8642 247.775 47.2775 247.975C47.6908 248.188 48.1642 248.295 48.6975 248.295C48.9375 248.295 49.2642 248.268 49.6775 248.215C50.0908 248.162 50.4375 248.068 50.7175 247.935C50.9042 247.842 51.0442 247.748 51.1375 247.655C51.2308 247.575 51.2775 247.422 51.2775 247.195C51.2775 246.915 51.1308 246.702 50.8375 246.555C50.5442 246.408 50.2508 246.322 49.9575 246.295ZM63.7114 245.435C62.7114 245.435 62.0381 245.048 61.6914 244.275C61.5181 243.888 61.4047 243.388 61.3514 242.775C61.2981 242.148 61.2714 241.415 61.2714 240.575V239.955C61.2714 238.995 60.9514 238.515 60.3114 238.515C59.9381 238.515 59.5647 238.708 59.1914 239.095C58.8181 239.468 58.5047 239.968 58.2514 240.595C58.0114 241.208 57.8914 241.848 57.8914 242.515C57.8914 242.955 57.9114 243.355 57.9514 243.715C57.9781 244.168 57.9914 244.515 57.9914 244.755C57.9914 245.208 57.6781 245.435 57.0514 245.435C56.7447 245.435 56.4714 245.368 56.2314 245.235C56.0047 245.102 55.8914 244.928 55.8914 244.715C55.9447 244.035 55.9714 243.195 55.9714 242.195L55.9514 239.555C55.9514 239.128 55.9181 237.548 55.8514 234.815L55.7914 232.975C55.7914 232.682 55.9247 232.428 56.1914 232.215C56.4581 231.988 56.7581 231.875 57.0914 231.875C57.3847 231.875 57.5981 231.942 57.7314 232.075C57.8647 232.208 57.9314 232.415 57.9314 232.695C57.9314 233.042 57.9247 233.448 57.9114 233.915C57.8981 234.368 57.8847 234.715 57.8714 234.955C57.8314 235.635 57.8114 236.315 57.8114 236.995C57.8114 237.662 57.7981 238.188 57.7714 238.575C58.1714 237.988 58.6247 237.555 59.1314 237.275C59.6514 236.982 60.2581 236.835 60.9514 236.835C61.4581 236.835 61.9247 237.062 62.3514 237.515C62.7914 237.955 63.0581 238.462 63.1514 239.035C63.1781 239.328 63.1914 239.762 63.1914 240.335L63.1714 241.795C63.1714 242.022 63.1847 242.375 63.2114 242.855C63.2247 243.082 63.2981 243.322 63.4314 243.575C63.5781 243.828 63.7447 244.015 63.9314 244.135C64.1047 244.242 64.2181 244.348 64.2714 244.455C64.3247 244.562 64.3514 244.682 64.3514 244.815C64.3514 244.948 64.2914 245.088 64.1714 245.235C64.0514 245.368 63.8981 245.435 63.7114 245.435ZM73.9863 238.955C74.0929 239.142 74.1796 239.415 74.2463 239.775C74.3129 240.122 74.3463 240.435 74.3463 240.715C74.3463 241.235 74.2329 241.975 74.0063 242.935C73.0863 244.615 71.7263 245.455 69.9263 245.455C69.2596 245.455 68.5796 245.235 67.8863 244.795C67.1929 244.355 66.7129 243.848 66.4463 243.275C66.0863 242.128 65.9063 241.402 65.9063 241.095C65.9063 240.562 66.0196 239.995 66.2463 239.395C66.4863 238.795 66.7863 238.275 67.1463 237.835C67.3729 237.528 67.7796 237.268 68.3663 237.055C68.9529 236.828 69.4863 236.715 69.9663 236.715C70.8996 236.715 71.6929 236.895 72.3463 237.255C72.9996 237.602 73.5463 238.168 73.9863 238.955ZM72.2463 242.175C72.3129 242.002 72.3463 241.555 72.3463 240.835C72.3463 240.448 72.2729 240.068 72.1263 239.695C71.9929 239.322 71.7929 239.002 71.5263 238.735C71.4996 238.708 71.4263 238.668 71.3063 238.615C71.1863 238.548 71.0196 238.488 70.8063 238.435C70.6063 238.368 70.3729 238.335 70.1063 238.335C69.3596 238.335 68.8129 238.635 68.4663 239.235C68.1196 239.835 67.9463 240.515 67.9463 241.275C67.9463 241.408 67.9796 241.662 68.0463 242.035C68.1263 242.408 68.1929 242.642 68.2463 242.735C68.2863 242.828 68.3863 242.962 68.5463 243.135C68.7196 243.295 68.9263 243.442 69.1663 243.575C69.4196 243.695 69.6796 243.755 69.9463 243.755C70.5463 243.755 71.0263 243.615 71.3863 243.335C71.7463 243.042 72.0329 242.655 72.2463 242.175ZM82.2806 240.795C82.814 241.102 83.1873 241.408 83.4006 241.715C83.614 242.008 83.7206 242.395 83.7206 242.875C83.7206 243.355 83.5806 243.782 83.3006 244.155C83.0206 244.515 82.6606 244.795 82.2206 244.995C81.9006 245.142 81.5006 245.255 81.0206 245.335C80.554 245.415 80.1873 245.455 79.9206 245.455C79.454 245.455 78.9473 245.368 78.4006 245.195C77.854 245.022 77.3873 244.775 77.0006 244.455C76.6273 244.135 76.4406 243.762 76.4406 243.335C76.4406 243.068 76.5273 242.862 76.7006 242.715C76.874 242.555 77.1006 242.475 77.3806 242.475C77.6073 242.475 77.8473 242.635 78.1006 242.955C78.354 243.235 78.6473 243.448 78.9806 243.595C79.3273 243.742 79.6673 243.815 80.0006 243.815C81.2673 243.815 81.9006 243.528 81.9006 242.955C81.9006 242.835 81.8606 242.722 81.7806 242.615C81.7006 242.495 81.6273 242.415 81.5606 242.375C81.4406 242.282 81.274 242.202 81.0606 242.135C80.8473 242.068 80.634 242.015 80.4206 241.975C80.2073 241.922 80.0473 241.882 79.9406 241.855C79.834 241.828 79.6073 241.782 79.2606 241.715C78.9273 241.648 78.6073 241.535 78.3006 241.375C77.794 241.135 77.3806 240.842 77.0606 240.495C76.754 240.148 76.6006 239.702 76.6006 239.155C76.6006 238.848 76.674 238.542 76.8206 238.235C76.9806 237.915 77.194 237.675 77.4606 237.515C77.8606 237.262 78.3006 237.068 78.7806 236.935C79.2606 236.802 79.7073 236.735 80.1206 236.735C80.454 236.735 80.8273 236.768 81.2406 236.835C81.6673 236.902 81.974 236.995 82.1606 237.115C82.5073 237.302 82.7606 237.495 82.9206 237.695C83.0806 237.895 83.1606 238.148 83.1606 238.455C83.1606 238.602 83.1273 238.748 83.0606 238.895C82.994 239.028 82.914 239.122 82.8206 239.175C82.6073 239.255 82.4206 239.295 82.2606 239.295C82.1406 239.295 82.0406 239.275 81.9606 239.235C81.8806 239.182 81.8073 239.128 81.7406 239.075C81.6873 239.022 81.654 238.988 81.6406 238.975C81.4673 238.788 81.274 238.642 81.0606 238.535C80.8473 238.428 80.534 238.375 80.1206 238.375C79.854 238.375 79.594 238.415 79.3406 238.495C79.1006 238.562 78.914 238.648 78.7806 238.755C78.674 238.835 78.6006 238.908 78.5606 238.975C78.5206 239.028 78.5006 239.102 78.5006 239.195C78.5006 239.568 78.874 239.842 79.6206 240.015C80.3806 240.188 80.7806 240.282 80.8206 240.295C80.9006 240.322 81.1206 240.388 81.4806 240.495C81.854 240.602 82.1206 240.702 82.2806 240.795ZM85.9045 238.455C85.7179 238.428 85.5645 238.348 85.4445 238.215C85.3379 238.082 85.2845 237.922 85.2845 237.735C85.2845 237.642 85.3045 237.542 85.3445 237.435C85.3979 237.328 85.4712 237.235 85.5645 237.155C85.7379 236.982 86.2045 236.895 86.9645 236.895C87.0712 236.375 87.1245 235.848 87.1245 235.315C87.1245 235.115 87.1179 234.942 87.1045 234.795C87.0912 234.648 87.0845 234.535 87.0845 234.455C87.0845 234.162 87.1912 233.942 87.4045 233.795C87.6312 233.648 87.8845 233.575 88.1645 233.575C88.5112 233.575 88.7445 233.662 88.8645 233.835C88.9979 234.008 89.0645 234.328 89.0645 234.795C89.0645 235.488 89.0045 236.168 88.8845 236.835C89.0979 236.835 89.3912 236.822 89.7645 236.795C90.2712 236.768 90.6379 236.755 90.8645 236.755C91.0912 236.755 91.2845 236.815 91.4445 236.935C91.6179 237.042 91.7045 237.195 91.7045 237.395C91.7045 237.915 91.4712 238.222 91.0045 238.315C90.5112 238.435 89.7445 238.508 88.7045 238.535C88.6645 239.055 88.6445 239.622 88.6445 240.235C88.6445 241.195 88.7045 241.982 88.8245 242.595C88.9045 243.022 89.0379 243.335 89.2245 243.535C89.4245 243.722 89.7179 243.815 90.1045 243.815C90.3312 243.815 90.5645 243.755 90.8045 243.635C90.9645 243.542 91.1112 243.495 91.2445 243.495C91.4312 243.495 91.5645 243.555 91.6445 243.675C91.7379 243.795 91.7845 243.955 91.7845 244.155C91.7845 244.528 91.5845 244.842 91.1845 245.095C90.7845 245.335 90.2712 245.455 89.6445 245.455C89.2579 245.455 88.8645 245.362 88.4645 245.175C88.0779 244.988 87.7512 244.755 87.4845 244.475C87.4445 244.435 87.3712 244.282 87.2645 244.015C87.1579 243.748 87.0645 243.462 86.9845 243.155C86.8512 242.528 86.7845 241.648 86.7845 240.515C86.7845 240.022 86.8112 239.362 86.8645 238.535L85.9045 238.455Z" fill="black"/>
</g>
<g filter="url(#filter1_d_2_94)">
<circle cx="554" cy="233" r="50" fill="white" fill-opacity="0.91" shape-rendering="crispEdges"/>
<circle cx="554" cy="233" r="51.5" stroke="white" stroke-opacity="0.91" stroke-width="3" shape-rendering="crispEdges"/>
</g>
<g clip-path="url(#clip1_2_94)">
<path d="M597 232.5C597 208.488 577.512 189 553.5 189C529.488 189 510 208.488 510 232.5C510 256.512 529.488 276 553.5 276C577.512 276 597 256.512 597 232.5ZM553.5 193.393C575.119 193.393 592.606 210.881 592.606 232.5C592.606 254.119 575.119 271.606 553.5 271.606C531.881 271.606 514.393 254.119 514.393 232.5C514.393 210.881 531.881 193.393 553.5 193.393ZM544.844 253.467L531.576 217.753C533.707 217.623 536.144 217.406 536.144 217.406C538.014 217.188 537.796 213.012 535.882 213.099C535.882 213.099 530.271 213.534 526.617 213.534C525.964 213.534 525.181 213.534 524.355 213.49C530.619 204.051 541.32 197.83 553.5 197.83C562.591 197.83 570.856 201.267 577.033 206.922C574.423 206.574 570.726 208.444 570.726 213.099C570.726 215.97 572.379 218.406 574.162 221.277C575.511 223.626 576.337 226.584 576.337 230.89C576.337 236.719 570.813 250.378 570.813 250.378L559.025 217.753C561.113 217.623 562.287 217.057 562.287 217.057C564.158 216.84 563.94 212.272 562.07 212.359C562.07 212.359 556.414 212.838 552.76 212.838C549.367 212.838 543.582 212.359 543.582 212.359C541.711 212.272 541.494 216.97 543.364 217.057L547.019 217.406L551.89 230.629L544.844 253.467ZM571.03 262.819L582.384 232.5C582.384 232.5 585.299 225.148 584.081 215.926C586.821 220.885 588.169 226.453 588.169 232.5C588.169 245.376 581.383 256.773 571.03 262.819ZM521.658 218.449L538.275 264.037C526.66 258.382 518.83 246.289 518.83 232.5C518.83 227.454 519.701 222.799 521.658 218.449ZM554.065 238.155L564.027 265.342C560.764 266.517 557.197 267.169 553.5 267.169C550.368 267.169 547.366 266.691 544.539 265.864L554.065 238.155Z" fill="url(#paint2_linear_2_94)"/>
</g>
<g filter="url(#filter2_d_2_94)">
<circle cx="446" cy="75" r="50" fill="white" fill-opacity="0.91" shape-rendering="crispEdges"/>
<circle cx="446" cy="75" r="51.5" stroke="white" stroke-opacity="0.91" stroke-width="3" shape-rendering="crispEdges"/>
</g>
<path d="M465.646 68.1673L478.38 48.3419H445.628L442.095 53.92L465.646 68.1673ZM419.425 42V73.7013L426.49 77.9752L464.763 69.4274L419.425 42ZM471.158 108.176V76.4752L465.506 72.9926L450.784 95.7877L471.158 108.176ZM425.82 80.7491L412.203 101.837H444.955L464.093 72.2013L425.82 80.7491Z" fill="url(#paint3_linear_2_94)"/>
<g filter="url(#filter3_d_2_94)">
<circle cx="166" cy="63" r="50" fill="white" fill-opacity="0.9" shape-rendering="crispEdges"/>
<circle cx="166" cy="63" r="51.5" stroke="white" stroke-opacity="0.9" stroke-width="3" shape-rendering="crispEdges"/>
</g>
<path d="M176.928 100.934L199.478 96.0562C199.478 96.0562 191.341 41.0156 191.275 40.65C191.219 40.2875 190.919 40.05 190.616 40.05C190.312 40.05 184.588 39.625 184.588 39.625C184.588 39.625 180.603 35.6437 180.091 35.2156C179.98 35.1157 179.852 35.0373 179.713 34.9844L176.856 100.934H176.928ZM165.594 61.3281C165.594 61.3281 163.063 60.0031 160.05 60.0031C155.528 60.0031 155.35 62.8344 155.35 63.5688C155.35 67.4188 165.475 68.9281 165.475 78.0344C165.475 85.2062 160.975 89.7844 154.831 89.7844C147.475 89.7844 143.769 85.2062 143.769 85.2062L145.788 78.6875C145.788 78.6875 149.678 82.0188 152.913 82.0188C153.305 82.0317 153.696 81.9662 154.063 81.8261C154.429 81.6859 154.764 81.4741 155.048 81.2028C155.332 80.9316 155.559 80.6064 155.715 80.2464C155.872 79.8864 155.955 79.4988 155.959 79.1062C155.959 74.0469 147.666 73.8125 147.666 65.4844C147.559 58.4938 152.575 51.6844 162.75 51.6844C166.678 51.6844 168.609 52.8125 168.609 52.8125L165.656 61.2969L165.594 61.3281ZM163.906 28.5937C164.331 28.5937 164.753 28.7125 165.172 29.0156C162.097 30.4687 158.722 34.1375 157.334 41.4906C155.376 42.1236 153.408 42.7258 151.431 43.2969C153.053 37.7187 156.972 28.625 163.906 28.625V28.5937ZM167.766 37.8094V38.2313C165.409 38.9563 162.819 39.7438 160.284 40.5313C161.741 34.9781 164.45 32.2656 166.8 31.2469C167.403 32.8125 167.766 34.9219 167.766 37.8094ZM169.45 30.8281C171.619 31.0594 173.016 33.5375 173.916 36.3125C172.825 36.6687 171.619 37.0344 170.297 37.4562V36.6688C170.297 34.3188 169.997 32.3844 169.45 30.8219V30.8281ZM178.8 34.8563C178.738 34.8563 178.613 34.9219 178.556 34.9219C178.5 34.9219 177.653 35.1563 176.325 35.5781C175.003 31.725 172.65 28.1719 168.488 28.1719H168.128C166.922 26.6531 165.466 26 164.203 26C154.497 26 149.859 38.1156 148.406 44.2688C144.675 45.4094 141.959 46.2562 141.656 46.375C139.547 47.0406 139.488 47.1 139.244 49.0937C139.009 50.5375 133.525 93.0406 133.525 93.0406L175.903 101L178.8 34.8563Z" fill="url(#paint4_linear_2_94)"/>
<defs>
<filter id="filter0_d_2_94" x="0" y="176" width="140" height="140" filterUnits="userSpaceOnUse" color-interpolation-filters="sRGB">
<feFlood flood-opacity="0" result="BackgroundImageFix"/>
<feColorMatrix in="SourceAlpha" type="matrix" values="0 0 0 0 0 0 0 0 0 0 0 0 0 0 0 0 0 0 127 0" result="hardAlpha"/>
<feMorphology radius="3" operator="dilate" in="SourceAlpha" result="effect1_dropShadow_2_94"/>
<feOffset dy="7"/>
<feGaussianBlur stdDeviation="7"/>
<feComposite in2="hardAlpha" operator="out"/>
<feColorMatrix type="matrix" values="0 0 0 0 0.430833 0 0 0 0 0.69265 0 0 0 0 1 0 0 0 0.4 0"/>
<feBlend mode="normal" in2="BackgroundImageFix" result="effect1_dropShadow_2_94"/>
<feBlend mode="normal" in="SourceGraphic" in2="effect1_dropShadow_2_94" result="shape"/>
</filter>
<filter id="filter1_d_2_94" x="484" y="170" width="140" height="140" filterUnits="userSpaceOnUse" color-interpolation-filters="sRGB">
<feFlood flood-opacity="0" result="BackgroundImageFix"/>
<feColorMatrix in="SourceAlpha" type="matrix" values="0 0 0 0 0 0 0 0 0 0 0 0 0 0 0 0 0 0 127 0" result="hardAlpha"/>
<feMorphology radius="3" operator="dilate" in="SourceAlpha" result="effect1_dropShadow_2_94"/>
<feOffset dy="7"/>
<feGaussianBlur stdDeviation="7"/>
<feComposite in2="hardAlpha" operator="out"/>
<feColorMatrix type="matrix" values="0 0 0 0 0.430833 0 0 0 0 0.69265 0 0 0 0 1 0 0 0 0.4 0"/>
<feBlend mode="normal" in2="BackgroundImageFix" result="effect1_dropShadow_2_94"/>
<feBlend mode="normal" in="SourceGraphic" in2="effect1_dropShadow_2_94" result="shape"/>
</filter>
<filter id="filter2_d_2_94" x="376" y="12" width="140" height="140" filterUnits="userSpaceOnUse" color-interpolation-filters="sRGB">
<feFlood flood-opacity="0" result="BackgroundImageFix"/>
<feColorMatrix in="SourceAlpha" type="matrix" values="0 0 0 0 0 0 0 0 0 0 0 0 0 0 0 0 0 0 127 0" result="hardAlpha"/>
<feMorphology radius="3" operator="dilate" in="SourceAlpha" result="effect1_dropShadow_2_94"/>
<feOffset dy="7"/>
<feGaussianBlur stdDeviation="7"/>
<feComposite in2="hardAlpha" operator="out"/>
<feColorMatrix type="matrix" values="0 0 0 0 0.430833 0 0 0 0 0.69265 0 0 0 0 1 0 0 0 0.4 0"/>
<feBlend mode="normal" in2="BackgroundImageFix" result="effect1_dropShadow_2_94"/>
<feBlend mode="normal" in="SourceGraphic" in2="effect1_dropShadow_2_94" result="shape"/>
</filter>
<filter id="filter3_d_2_94" x="96" y="0" width="140" height="140" filterUnits="userSpaceOnUse" color-interpolation-filters="sRGB">
<feFlood flood-opacity="0" result="BackgroundImageFix"/>
<feColorMatrix in="SourceAlpha" type="matrix" values="0 0 0 0 0 0 0 0 0 0 0 0 0 0 0 0 0 0 127 0" result="hardAlpha"/>
<feMorphology radius="3" operator="dilate" in="SourceAlpha" result="effect1_dropShadow_2_94"/>
<feOffset dy="7"/>
<feGaussianBlur stdDeviation="7"/>
<feComposite in2="hardAlpha" operator="out"/>
<feColorMatrix type="matrix" values="0 0 0 0 0.430833 0 0 0 0 0.69265 0 0 0 0 1 0 0 0 0.4 0"/>
<feBlend mode="normal" in2="BackgroundImageFix" result="effect1_dropShadow_2_94"/>
<feBlend mode="normal" in="SourceGraphic" in2="effect1_dropShadow_2_94" result="shape"/>
</filter>
<linearGradient id="paint0_linear_2_94" x1="313" y1="14" x2="313" y2="514" gradientUnits="userSpaceOnUse">
<stop offset="0.9999" stop-color="#926CFF"/>
<stop offset="1" stop-opacity="0"/>
</linearGradient>
<linearGradient id="paint1_linear_2_94" x1="70.5" y1="197" x2="70.5" y2="282" gradientUnits="userSpaceOnUse">
<stop stop-color="#FF8A00"/>
<stop offset="1" stop-color="#00FFFF" stop-opacity="0.82"/>
</linearGradient>
<linearGradient id="paint2_linear_2_94" x1="553.5" y1="189" x2="553.5" y2="276" gradientUnits="userSpaceOnUse">
<stop stop-color="#EB00FF"/>
<stop offset="1" stop-color="#597DFF" stop-opacity="0.86"/>
</linearGradient>
<linearGradient id="paint3_linear_2_94" x1="445" y1="78.5" x2="443" y2="72" gradientUnits="userSpaceOnUse">
<stop stop-color="#F5A50A"/>
<stop offset="1" stop-color="#5BCFDE"/>
</linearGradient>
<linearGradient id="paint4_linear_2_94" x1="166.502" y1="26" x2="166.502" y2="101" gradientUnits="userSpaceOnUse">
<stop stop-color="#951F9F"/>
<stop offset="1" stop-color="#24BFD5"/>
</linearGradient>
<clipPath id="clip0_2_94">
<rect width="85" height="85" fill="white" transform="translate(28 197)"/>
</clipPath>
<clipPath id="clip1_2_94">
<rect width="87" height="87" fill="white" transform="translate(510 189)"/>
</clipPath>
</defs>
</svg>
